<?xml version="1.0" standalone="no"?>
<!DOCTYPE svg PUBLIC "-//W3C//DTD SVG 20010904//EN"
 "http://www.w3.org/TR/2001/REC-SVG-20010904/DTD/svg10.dtd">
<svg version="1.0" xmlns="http://www.w3.org/2000/svg"
 width="600.000000pt" height="600.000000pt" viewBox="0 0 600.000000 600.000000"
 preserveAspectRatio="xMidYMid meet">
<metadata>
Created by potrace 1.14, written by Peter Selinger 2001-2017
</metadata>
<g transform="translate(0.000000,600.000000) scale(0.100000,-0.100000)"
fill="#000000" stroke="none">
<path d="M0 3000 l0 -3000 3000 0 3000 0 0 3000 0 3000 -3000 0 -3000 0 0
-3000z m2253 2155 c214 -64 423 -285 576 -606 58 -123 113 -265 148 -387 13
-47 22 -62 33 -58 8 3 53 21 100 40 509 210 1097 90 1469 -300 142 -149 231
-298 290 -489 39 -129 52 -215 53 -350 0 -146 -16 -245 -63 -390 -137 -425
-506 -743 -971 -839 -256 -53 -580 -16 -811 91 -42 20 -79 34 -80 32 -2 -2
-20 -58 -41 -123 -217 -687 -614 -1051 -1003 -921 -368 124 -681 666 -802
1390 -52 313 -56 362 -55 760 0 404 3 447 60 775 116 678 402 1193 748 1350
111 51 235 59 349 25z"/>
</g>
</svg>
